PathFileType	4	(X/Y/Z)	C:/Users/opensim2020/Desktop/walking_exp_matlab/subject06_walking14_straight_04.trc																																																																																																																																					
DataRate	CameraRate	NumFrames	NumMarkers	Units	OrigDataRate	OrigDataStartFrame	OrigNumFrames																																																																																																																																	
100	100	4	45	mm	100	3058	227																																																																																																																																	
Frame#	Time	LFHD			RFHD			LBHD			RBHD			C7			T10			CLAV			STRN			RBAK			LSHO			LUPA			LELB			LFRM			LWRA			LWRB			LFIN			RSHO			RUPA			RELB			RFRM			RWRA			RWRB			RFIN			LASI			RASI			LPSI			RPSI			LTHI			LKNE			LTIB			LANK			LHEE			LTOE			RTHI			RKNE			RTIB			RANK			RHEE			RTOE			*39			*40			*41			*42			*43			*44		
		X1	Y1	Z1	X2	Y2	Z2	X3	Y3	Z3	X4	Y4	Z4	X5	Y5	Z5	X6	Y6	Z6	X7	Y7	Z7	X8	Y8	Z8	X9	Y9	Z9	X10	Y10	Z10	X11	Y11	Z11	X12	Y12	Z12	X13	Y13	Z13	X14	Y14	Z14	X15	Y15	Z15	X16	Y16	Z16	X17	Y17	Z17	X18	Y18	Z18	X19	Y19	Z19	X20	Y20	Z20	X21	Y21	Z21	X22	Y22	Z22	X23	Y23	Z23	X24	Y24	Z24	X25	Y25	Z25	X26	Y26	Z26	X27	Y27	Z27	X28	Y28	Z28	X29	Y29	Z29	X30	Y30	Z30	X31	Y31	Z31	X32	Y32	Z32	X33	Y33	Z33	X34	Y34	Z34	X35	Y35	Z35	X36	Y36	Z36	X37	Y37	Z37	X38	Y38	Z38	X39	Y39	Z39	X40	Y40	Z40	X41	Y41	Z41	X42	Y42	Z42	X43	Y43	Z43	X44	Y44	Z44	X45	Y45	Z45
																																																																																																																																								
142	1.41	298.59875	1657.92407	946.21875	304.74188	1646.5968	1077.63379	167.5862	1598.12305	951.42169	175.26254	1592.6637	1080.79822	174.20045	1439.87537	1004.50287	147.68604	1111.16943	1011.69519	287.21402	1367.04504	1006.43964	331.60977	1192.4541	998.59222	104.49206	1269.47717	1077.97266	228.47241	1395.31812	845.22235	262.66449	1197.13379	773.15039	289.34055	1088.31604	759.85522	399.73419	989.84552	741.05878	521.62823	958.03052	786.27521	485.36993	907.25446	752.90277	572.85669	887.7674	749.802	237.54863	1398.76172	1167.82251	164.14934	1209.82324	1249.88953	152.01973	1087.94897	1262.77039	141.653	968.5708	1283.4375	175.02213	818.45929	1264.18372	116.72147	832.94788	1294.94336	133.96544	750.33478	1302.76636	320.06824	947.04218	899.64178	336.34451	968.0824	1118.31433	165.25714	974.22516	935.10571	181.44937	986.13519	1102.18347	230.03656	627.07086	857.1142	213.30701	463.15244	879.93738	36.02478	276.3403	890.34979	-73.81264	144.73146	930.30438	-113.95732	155.55249	977.3316	22.57074	39.10741	928.39288	346.22318	640.79968	1183.21924	381.54437	522.00348	1151.95386	372.82593	254.05634	1158.5127	376.41422	67.30172	1114.72205	337.94598	41.46712	1071.43018	530.60486	36.57422	1100.73706	199.88942	1692.35718	1009.91925	NaN	NaN	NaN	NaN	NaN	NaN	NaN	NaN	NaN	NaN	NaN	NaN	NaN	NaN	NaN
143	1.42	308.67407	1659.23584	947.15448	314.86758	1647.60754	1078.41553	177.45512	1599.8291	952.58612	185.40405	1593.7561	1081.69153	183.82306	1441.1875	1005.8017	157.83051	1112.58777	1013.01044	297.07132	1368.40881	1007.05109	341.77179	1193.95166	999.2243	114.92216	1271.13123	1079.53564	237.5491	1396.70862	846.33398	271.38983	1198.44031	774.95825	296.45676	1089.0354	762.37128	405.05554	988.71576	743.6886	527.04865	954.896	788.03717	489.91537	905.04773	754.46991	576.8031	883.37225	751.8877	248.38489	1400.42761	1168.50952	176.19632	1211.28467	1251.3197	164.70963	1089.31506	1263.87537	155.48119	969.82422	1284.32178	191.04427	820.42529	1264.25146	131.97406	833.95044	1295.61865	150.09471	751.35333	1302.98254	330.18976	948.43286	900.70233	346.56656	969.59467	1119.48792	175.53268	975.22809	936.52454	192.07906	987.5459	1103.53479	244.54076	627.28088	857.86542	231.42461	463.17883	880.0307	50.52578	281.53244	892.22095	-62.51043	153.02298	932.45703	-100.9042	165.47643	980.59833	26.11879	40.46294	929.34314	354.04892	640.94727	1183.51807	387.85474	521.86432	1152.61292	375.46011	253.99606	1158.38452	376.83835	67.56997	1114.38623	338.13318	41.6475	1071.25598	531.29065	35.94184	1100.35938	210.05421	1693.71716	1011.01849	NaN	NaN	NaN	NaN	NaN	NaN	NaN	NaN	NaN	NaN	NaN	NaN	NaN	NaN	NaN
144	1.43	318.62799	1660.48132	947.98926	324.91434	1648.65063	1079.24622	187.38947	1601.13684	953.23083	195.39545	1595.02112	1082.61646	193.68129	1442.46729	1006.78418	167.87962	1113.94507	1014.36035	306.84033	1369.73779	1007.55756	351.87305	1195.36243	999.75	125.32577	1272.62683	1081.12878	246.47609	1397.90625	847.29712	279.78903	1199.50049	776.61328	303.21304	1089.45654	764.82373	410.36237	987.19318	745.81195	532.02753	951.31738	789.69891	493.74173	901.94641	756.4342	580.38635	878.60254	753.86316	259.19412	1401.98767	1169.151	188.254	1212.65283	1252.73535	177.34209	1090.59229	1265.0321	169.38258	970.9397	1285.22253	205.65344	821.60132	1264.39771	147.5361	834.6579	1296.11829	166.10658	752.06775	1302.82788	340.17657	949.83014	901.82507	356.84167	970.72784	1120.66907	185.54851	976.18707	937.91449	201.95934	989.31964	1104.95496	258.81934	627.6369	858.42053	248.95427	463.49323	879.97235	65.29622	286.74786	893.71741	-50.63515	161.0963	934.31134	-87.49983	175.17508	983.27802	31.27364	43.39677	930.15491	361.86526	641.57861	1184.55078	393.6153	521.6496	1153.34302	377.68173	253.88091	1158.57202	377.45212	67.46632	1114.35608	338.31003	41.82873	1071.09937	531.84827	35.47094	1100.18506	220.13739	1694.99658	1012.02698	NaN	NaN	NaN	NaN	NaN	NaN	NaN	NaN	NaN	NaN	NaN	NaN	NaN	NaN	NaN
145	1.44	328.44037	1661.73291	948.71967	334.78094	1649.63318	1079.85522	197.19731	1602.46375	954.04285	205.28502	1596.08313	1083.31128	203.48195	1443.3584	1007.74701	177.91653	1115.07507	1015.79041	316.66568	1371.01794	1007.98706	361.78122	1196.65686	1000.38397	135.53804	1273.85352	1083.06824	255.11577	1398.89758	848.12659	287.33575	1200.05127	778.38049	309.77896	1089.59131	767.14618	415.29318	985.32178	747.5285	536.58588	947.28937	791.15753	497.00427	898.58191	757.73132	583.53137	873.29657	755.72943	270.01529	1403.6156	1169.84167	200.38934	1213.90466	1254.18689	189.80354	1091.77271	1266.25525	183.44972	971.8985	1286.04492	221.46033	823.19128	1264.32007	163.28709	835.42065	1296.61743	182.97693	752.95319	1302.82629	350.04312	951.16058	902.80109	367.09131	971.53027	1121.77148	195.44708	977.07446	939.30627	212.31065	990.54401	1106.23926	272.84286	628.06244	858.91858	266.15533	464.15353	879.87183	80.14728	291.94699	894.66846	-38.20914	169.11774	936.21503	-73.67944	184.55763	985.54425	37.86666	47.34702	931.15314	368.76138	641.79865	1185.17444	399.23404	521.51654	1154.29272	379.72345	253.72491	1158.92285	377.51962	67.6618	1113.92126	338.42966	41.99329	1070.94971	532.12292	35.12022	1100.1936	230.06068	1696.28247	1012.9386	NaN	NaN	NaN	NaN	NaN	NaN	NaN	NaN	NaN	NaN	NaN	NaN	NaN	NaN	NaN
